<?xml version="1.0" encoding="UTF-8"?>
<svg version="1.1" xmlns="http://www.w3.org/2000/svg" width="64" height="64">
<path d="M0 0 C3.45081453 2.98024891 6.26932312 5.6745681 7.09765625 10.328125 C7.30382483 15.02518307 6.37515511 18.39200604 3.75 22.375 C-1.79271924 27.77185821 -6.88733692 27.48527539 -14.23828125 27.41015625 C-14.90214844 27.39855469 -15.56601562 27.38695313 -16.25 27.375 C-16.22679688 28.02726562 -16.20359375 28.67953125 -16.1796875 29.3515625 C-16.04579433 35.83581759 -16.40521103 40.57600984 -20.0625 46.125 C-23.58859587 49.75184147 -26.18816041 50.27387242 -31.1875 50.75 C-35.50665318 50.61985602 -37.9519205 49.22334139 -41.25 46.375 C-44.67257501 42.41201841 -45.8636431 39.45163282 -45.5703125 34.328125 C-44.84774358 29.92221696 -43.02913946 27.13363579 -39.875 24.0625 C-34.42179605 20.55686889 -28.52879084 21.26527356 -22.25 21.375 C-22.27320312 20.72273438 -22.29640625 20.07046875 -22.3203125 19.3984375 C-22.45420567 12.91418241 -22.09478897 8.17399016 -18.4375 2.625 C-13.31560395 -2.64323594 -6.41213114 -3.20606557 0 0 Z M-14.25 6.375 C-16.60119399 9.90179099 -16.46443452 11.40379485 -16.375 15.5625 C-16.35695313 16.64917969 -16.33890625 17.73585938 -16.3203125 18.85546875 C-16.29710938 19.68691406 -16.27390625 20.51835937 -16.25 21.375 C-8.42465303 21.95537855 -8.42465303 21.95537855 -1.0625 19.8125 C1.34881934 16.56969123 1.75 14.40250865 1.75 10.375 C0.49238176 7.39643049 -0.51530675 5.87269543 -3.1875 4.0625 C-7.83483461 2.51338846 -10.47432139 3.69228099 -14.25 6.375 Z M-37.4375 28.9375 C-39.84881934 32.18030877 -40.25 34.34749135 -40.25 38.375 C-39.03392788 41.25517082 -37.94696456 42.82738499 -35.5 44.75 C-32.06792041 45.70335544 -29.67177384 45.29154656 -26.25 44.375 C-23.56055892 42.66404021 -23.56055892 42.66404021 -22.25 39.375 C-21.93044798 35.35178771 -22.01882756 31.40125333 -22.25 27.375 C-30.07534697 26.79462145 -30.07534697 26.79462145 -37.4375 28.9375 Z " fill="#AE78F9" transform="translate(51.25,7.625)"/>
<path d="M0 0 C2.8100346 1.79363911 4.50940468 3.01880935 6 6 C6.5811138 13.08958838 6.5811138 13.08958838 4.125 16.9375 C0.8698054 20.09695358 -1.42413238 20.33421243 -5.9609375 20.29296875 C-9.13134567 19.83745033 -10.8192402 18.24684343 -13 16 C-14.60086627 12.79826746 -14.49917089 9.47422941 -14 6 C-10.32759145 0.24655994 -6.71744997 -0.96515086 0 0 Z M-7.25 6.9375 C-8.11625 7.9584375 -8.11625 7.9584375 -9 9 C-7.94525335 12.69460876 -7.94525335 12.69460876 -5.125 15.0625 C-2.77383252 15.21665306 -2.77383252 15.21665306 -0.75 13.0625 C-0.1725 12.381875 0.405 11.70125 1 11 C-0.05474665 7.30539124 -0.05474665 7.30539124 -2.875 4.9375 C-5.22616748 4.78334694 -5.22616748 4.78334694 -7.25 6.9375 Z " fill="#AC78F9" transform="translate(52,38)"/>
<path d="M0 0 C2.8100346 1.79363911 4.50940468 3.01880935 6 6 C6.5811138 13.08958838 6.5811138 13.08958838 4.125 16.9375 C0.8698054 20.09695358 -1.42413238 20.33421243 -5.9609375 20.29296875 C-9.13134567 19.83745033 -10.8192402 18.24684343 -13 16 C-14.60086627 12.79826746 -14.49917089 9.47422941 -14 6 C-10.32759145 0.24655994 -6.71744997 -0.96515086 0 0 Z M-7.25 6.9375 C-8.11625 7.9584375 -8.11625 7.9584375 -9 9 C-7.94525335 12.69460876 -7.94525335 12.69460876 -5.125 15.0625 C-2.77383252 15.21665306 -2.77383252 15.21665306 -0.75 13.0625 C-0.1725 12.381875 0.405 11.70125 1 11 C-0.05474665 7.30539124 -0.05474665 7.30539124 -2.875 4.9375 C-5.22616748 4.78334694 -5.22616748 4.78334694 -7.25 6.9375 Z " fill="#AC78F9" transform="translate(20,6)"/>
</svg>
